<svg xmlns="http://www.w3.org/2000/svg" xmlns:xlink="http://www.w3.org/1999/xlink" width="485" zoomAndPan="magnify" viewBox="0 0 363.75 392.250001" height="523" preserveAspectRatio="xMidYMid meet" version="1.2"><defs><clipPath id="cdc7756718"><path d="M 60.988281 49.484375 L 302.257812 49.484375 L 302.257812 290.757812 L 60.988281 290.757812 Z M 60.988281 49.484375 "/></clipPath><clipPath id="53fbe36f05"><path d="M 181.625 49.484375 C 115 49.484375 60.988281 103.496094 60.988281 170.121094 C 60.988281 236.746094 115 290.757812 181.625 290.757812 C 248.25 290.757812 302.257812 236.746094 302.257812 170.121094 C 302.257812 103.496094 248.25 49.484375 181.625 49.484375 Z M 181.625 49.484375 "/></clipPath><clipPath id="f9ac2d6c4b"><path d="M 0.988281 0.484375 L 242.257812 0.484375 L 242.257812 241.757812 L 0.988281 241.757812 Z M 0.988281 0.484375 "/></clipPath><clipPath id="b3b38d8997"><path d="M 121.625 0.484375 C 55 0.484375 0.988281 54.496094 0.988281 121.121094 C 0.988281 187.746094 55 241.757812 121.625 241.757812 C 188.25 241.757812 242.257812 187.746094 242.257812 121.121094 C 242.257812 54.496094 188.25 0.484375 121.625 0.484375 Z M 121.625 0.484375 "/></clipPath><clipPath id="dafa0f840c"><rect x="0" width="243" y="0" height="242"/></clipPath><clipPath id="c5a15395b0"><path d="M 60.988281 49.484375 L 302.027344 49.484375 L 302.027344 290.527344 L 60.988281 290.527344 Z M 60.988281 49.484375 "/></clipPath><clipPath id="5f2eb01048"><path d="M 181.621094 49.484375 C 114.996094 49.484375 60.988281 103.496094 60.988281 170.117188 C 60.988281 236.738281 114.996094 290.746094 181.621094 290.746094 C 248.242188 290.746094 302.25 236.738281 302.25 170.117188 C 302.25 103.496094 248.242188 49.484375 181.621094 49.484375 Z M 181.621094 49.484375 "/></clipPath><clipPath id="000fac4cf1"><rect x="0" width="163" y="0" height="229"/></clipPath></defs><g id="7fd00aa131"><g style="fill:#0097b2;fill-opacity:1;"><g transform="translate(22.402874, 359.530116)"><path style="stroke:none" d="M 27.921875 -35.40625 C 28.535156 -35.40625 28.945312 -35.269531 29.15625 -35 C 29.375 -34.726562 29.484375 -34.34375 29.484375 -33.84375 L 29.484375 -29.375 C 29.484375 -28.914062 29.375 -28.539062 29.15625 -28.25 C 28.945312 -27.96875 28.535156 -27.828125 27.921875 -27.828125 L 19.703125 -27.828125 L 19.703125 -1.5625 C 19.703125 -0.945312 19.566406 -0.53125 19.296875 -0.3125 C 19.023438 -0.101562 18.640625 0 18.140625 0 L 12.8125 0 C 12.34375 0 11.960938 -0.101562 11.671875 -0.3125 C 11.390625 -0.53125 11.25 -0.945312 11.25 -1.5625 L 11.25 -27.828125 L 2.953125 -27.828125 C 2.347656 -27.828125 1.9375 -27.96875 1.71875 -28.25 C 1.507812 -28.539062 1.40625 -28.914062 1.40625 -29.375 L 1.40625 -33.84375 C 1.40625 -34.34375 1.507812 -34.726562 1.71875 -35 C 1.9375 -35.269531 2.347656 -35.40625 2.953125 -35.40625 Z M 27.921875 -35.40625 "/></g></g><g style="fill:#0097b2;fill-opacity:1;"><g transform="translate(53.28605, 359.530116)"><path style="stroke:none" d="M 29.65625 -7.53125 C 30.257812 -7.53125 30.671875 -7.394531 30.890625 -7.125 C 31.109375 -6.863281 31.21875 -6.476562 31.21875 -5.96875 L 31.21875 -1.5625 C 31.21875 -1.09375 31.109375 -0.710938 30.890625 -0.421875 C 30.671875 -0.140625 30.257812 0 29.65625 0 L 5.546875 0 C 4.929688 0 4.515625 -0.140625 4.296875 -0.421875 C 4.085938 -0.710938 3.984375 -1.09375 3.984375 -1.5625 L 3.984375 -33.84375 C 3.984375 -34.34375 4.085938 -34.726562 4.296875 -35 C 4.515625 -35.269531 4.929688 -35.40625 5.546875 -35.40625 L 28.734375 -35.40625 C 29.347656 -35.40625 29.757812 -35.269531 29.96875 -35 C 30.1875 -34.726562 30.296875 -34.34375 30.296875 -33.84375 L 30.296875 -29.375 C 30.296875 -28.914062 30.1875 -28.539062 29.96875 -28.25 C 29.757812 -27.96875 29.347656 -27.828125 28.734375 -27.828125 L 12.484375 -27.828125 L 12.484375 -21.953125 L 26.90625 -21.953125 C 27.519531 -21.953125 27.929688 -21.816406 28.140625 -21.546875 C 28.359375 -21.273438 28.46875 -20.890625 28.46875 -20.390625 L 28.46875 -16.203125 C 28.46875 -15.734375 28.359375 -15.351562 28.140625 -15.0625 C 27.929688 -14.78125 27.519531 -14.640625 26.90625 -14.640625 L 12.484375 -14.640625 L 12.484375 -7.53125 Z M 29.65625 -7.53125 "/></g></g><g style="fill:#0097b2;fill-opacity:1;"><g transform="translate(87.020813, 359.530116)"><path style="stroke:none" d="M 11.625 -14.046875 C 11.65625 -10.347656 12.03125 -6.835938 12.75 -3.515625 C 13.46875 -0.203125 14.65625 3.226562 16.3125 6.78125 C 16.445312 7.0625 16.453125 7.351562 16.328125 7.65625 C 16.203125 7.96875 15.941406 8.125 15.546875 8.125 L 9.796875 8.125 C 9.398438 8.125 9.082031 8.003906 8.84375 7.765625 C 8.613281 7.535156 8.445312 7.296875 8.34375 7.046875 C 5.144531 0.304688 3.546875 -6.722656 3.546875 -14.046875 C 3.546875 -21.398438 5.144531 -28.445312 8.34375 -35.1875 C 8.445312 -35.4375 8.613281 -35.675781 8.84375 -35.90625 C 9.082031 -36.144531 9.398438 -36.265625 9.796875 -36.265625 L 15.546875 -36.265625 C 15.941406 -36.265625 16.203125 -36.113281 16.328125 -35.8125 C 16.453125 -35.507812 16.445312 -35.210938 16.3125 -34.921875 C 14.65625 -31.367188 13.46875 -27.929688 12.75 -24.609375 C 12.03125 -21.296875 11.65625 -17.773438 11.625 -14.046875 Z M 11.625 -14.046875 "/></g></g><g style="fill:#0097b2;fill-opacity:1;"><g transform="translate(106.230869, 359.530116)"><path style="stroke:none" d=""/></g></g><g style="fill:#0097b2;fill-opacity:1;"><g transform="translate(120.811602, 359.530116)"><path style="stroke:none" d=""/></g></g><g style="fill:#0097b2;fill-opacity:1;"><g transform="translate(135.401655, 359.530116)"><path style="stroke:none" d="M 7.59375 -14.046875 C 7.550781 -17.773438 7.179688 -21.296875 6.484375 -24.609375 C 5.785156 -27.929688 4.59375 -31.367188 2.90625 -34.921875 C 2.757812 -35.210938 2.75 -35.507812 2.875 -35.8125 C 3 -36.113281 3.257812 -36.265625 3.65625 -36.265625 L 9.421875 -36.265625 C 9.816406 -36.265625 10.128906 -36.144531 10.359375 -35.90625 C 10.585938 -35.675781 10.757812 -35.4375 10.875 -35.1875 C 14.0625 -28.445312 15.65625 -21.398438 15.65625 -14.046875 C 15.65625 -6.722656 14.0625 0.304688 10.875 7.046875 C 10.757812 7.296875 10.585938 7.535156 10.359375 7.765625 C 10.128906 8.003906 9.816406 8.125 9.421875 8.125 L 3.65625 8.125 C 3.257812 8.125 3 7.96875 2.875 7.65625 C 2.75 7.351562 2.757812 7.0625 2.90625 6.78125 C 4.59375 3.226562 5.785156 -0.203125 6.484375 -3.515625 C 7.179688 -6.835938 7.550781 -10.347656 7.59375 -14.046875 Z M 7.59375 -14.046875 "/></g></g><g style="fill:#0097b2;fill-opacity:1;"><g transform="translate(154.609485, 359.530116)"><path style="stroke:none" d="M 30.453125 -35.40625 C 30.960938 -35.40625 31.347656 -35.296875 31.609375 -35.078125 C 31.878906 -34.867188 32.015625 -34.457031 32.015625 -33.84375 L 32.015625 -10.8125 C 32.015625 -8.695312 31.582031 -6.90625 30.71875 -5.4375 C 29.863281 -3.96875 28.726562 -2.773438 27.3125 -1.859375 C 25.894531 -0.941406 24.351562 -0.269531 22.6875 0.15625 C 21.019531 0.59375 19.378906 0.8125 17.765625 0.8125 C 16.148438 0.8125 14.515625 0.59375 12.859375 0.15625 C 11.210938 -0.269531 9.679688 -0.941406 8.265625 -1.859375 C 6.847656 -2.773438 5.707031 -3.96875 4.84375 -5.4375 C 3.976562 -6.90625 3.546875 -8.695312 3.546875 -10.8125 L 3.546875 -33.84375 C 3.546875 -34.457031 3.6875 -34.867188 3.96875 -35.078125 C 4.257812 -35.296875 4.640625 -35.40625 5.109375 -35.40625 L 10.4375 -35.40625 C 10.9375 -35.40625 11.320312 -35.296875 11.59375 -35.078125 C 11.863281 -34.867188 12 -34.457031 12 -33.84375 L 12 -12 C 12 -10.3125 12.519531 -9 13.5625 -8.0625 C 14.601562 -7.132812 16.003906 -6.671875 17.765625 -6.671875 C 19.554688 -6.671875 20.96875 -7.132812 22 -8.0625 C 23.039062 -9 23.5625 -10.3125 23.5625 -12 L 23.5625 -33.84375 C 23.5625 -34.457031 23.707031 -34.867188 24 -35.078125 C 24.289062 -35.296875 24.664062 -35.40625 25.125 -35.40625 Z M 30.453125 -35.40625 "/></g></g><g style="fill:#0097b2;fill-opacity:1;"><g transform="translate(190.173567, 359.530116)"><path style="stroke:none" d="M 20.65625 -20.5625 C 21.625 -20.269531 22.664062 -19.914062 23.78125 -19.5 C 24.894531 -19.09375 25.9375 -18.539062 26.90625 -17.84375 C 27.875 -17.144531 28.671875 -16.203125 29.296875 -15.015625 C 29.929688 -13.828125 30.25 -12.320312 30.25 -10.5 C 30.25 -7.945312 29.628906 -5.835938 28.390625 -4.171875 C 27.148438 -2.503906 25.453125 -1.253906 23.296875 -0.421875 C 21.148438 0.398438 18.691406 0.8125 15.921875 0.8125 C 14.242188 0.8125 12.550781 0.566406 10.84375 0.078125 C 9.132812 -0.398438 7.570312 -1.113281 6.15625 -2.0625 C 4.738281 -3.019531 3.597656 -4.210938 2.734375 -5.640625 C 1.878906 -7.078125 1.453125 -8.726562 1.453125 -10.59375 C 1.453125 -11.207031 1.554688 -11.613281 1.765625 -11.8125 C 1.984375 -12.007812 2.398438 -12.109375 3.015625 -12.109375 L 8.234375 -12.109375 C 8.835938 -12.109375 9.300781 -12.023438 9.625 -11.859375 C 9.945312 -11.703125 10.128906 -11.28125 10.171875 -10.59375 C 10.203125 -10.238281 10.289062 -9.878906 10.4375 -9.515625 C 10.582031 -9.160156 10.832031 -8.785156 11.1875 -8.390625 C 11.726562 -7.742188 12.488281 -7.285156 13.46875 -7.015625 C 14.457031 -6.753906 15.457031 -6.625 16.46875 -6.625 C 17.9375 -6.625 19.179688 -6.851562 20.203125 -7.3125 C 21.222656 -7.78125 21.734375 -8.769531 21.734375 -10.28125 C 21.734375 -11.28125 21.265625 -12.015625 20.328125 -12.484375 C 19.398438 -12.953125 18.226562 -13.335938 16.8125 -13.640625 C 15.394531 -13.941406 13.914062 -14.328125 12.375 -14.796875 C 10.582031 -15.367188 8.882812 -16.050781 7.28125 -16.84375 C 5.6875 -17.632812 4.394531 -18.707031 3.40625 -20.0625 C 2.425781 -21.425781 1.9375 -23.238281 1.9375 -25.5 C 1.9375 -27.832031 2.554688 -29.78125 3.796875 -31.34375 C 5.035156 -32.90625 6.65625 -34.085938 8.65625 -34.890625 C 10.664062 -35.703125 12.785156 -36.144531 15.015625 -36.21875 C 16.734375 -36.21875 18.4375 -36.019531 20.125 -35.625 C 21.8125 -35.226562 23.34375 -34.609375 24.71875 -33.765625 C 26.101562 -32.921875 27.21875 -31.863281 28.0625 -30.59375 C 28.90625 -29.320312 29.328125 -27.785156 29.328125 -25.984375 C 29.328125 -25.335938 29.21875 -24.925781 29 -24.75 C 28.789062 -24.570312 28.378906 -24.484375 27.765625 -24.484375 L 22.5 -24.484375 C 21.988281 -24.484375 21.648438 -24.632812 21.484375 -24.9375 C 21.328125 -25.25 21.179688 -25.582031 21.046875 -25.9375 C 20.929688 -26.226562 20.789062 -26.488281 20.625 -26.71875 C 20.46875 -26.945312 20.226562 -27.222656 19.90625 -27.546875 C 19.40625 -28.054688 18.722656 -28.425781 17.859375 -28.65625 C 17.003906 -28.882812 16.164062 -29 15.34375 -29 C 14.757812 -29 14.09375 -28.910156 13.34375 -28.734375 C 12.59375 -28.554688 11.945312 -28.242188 11.40625 -27.796875 C 10.863281 -27.347656 10.59375 -26.710938 10.59375 -25.890625 C 10.59375 -25.054688 11.003906 -24.351562 11.828125 -23.78125 C 12.660156 -23.207031 13.660156 -22.710938 14.828125 -22.296875 C 15.992188 -21.890625 17.125 -21.550781 18.21875 -21.28125 C 19.3125 -21.007812 20.125 -20.769531 20.65625 -20.5625 Z M 20.65625 -20.5625 "/></g></g><g style="fill:#0097b2;fill-opacity:1;"><g transform="translate(222.724654, 359.530116)"><path style="stroke:none" d=""/></g></g><g style="fill:#0097b2;fill-opacity:1;"><g transform="translate(237.305386, 359.530116)"><path style="stroke:none" d="M 27.921875 -7.53125 C 28.535156 -7.53125 28.945312 -7.394531 29.15625 -7.125 C 29.375 -6.863281 29.484375 -6.476562 29.484375 -5.96875 L 29.484375 -1.5625 C 29.484375 -1.09375 29.375 -0.710938 29.15625 -0.421875 C 28.945312 -0.140625 28.535156 0 27.921875 0 L 5.546875 0 C 4.929688 0 4.515625 -0.140625 4.296875 -0.421875 C 4.085938 -0.710938 3.984375 -1.09375 3.984375 -1.5625 L 3.984375 -33.84375 C 3.984375 -34.457031 4.125 -34.867188 4.40625 -35.078125 C 4.695312 -35.296875 5.078125 -35.40625 5.546875 -35.40625 L 10.875 -35.40625 C 11.375 -35.40625 11.757812 -35.296875 12.03125 -35.078125 C 12.300781 -34.867188 12.4375 -34.457031 12.4375 -33.84375 L 12.4375 -7.53125 Z M 27.921875 -7.53125 "/></g></g><g style="fill:#0097b2;fill-opacity:1;"><g transform="translate(268.618986, 359.530116)"><path style="stroke:none" d="M 1.9375 0 C 1.363281 0 1.03125 -0.164062 0.9375 -0.5 C 0.851562 -0.84375 0.878906 -1.175781 1.015625 -1.5 L 12.96875 -33.734375 C 13.1875 -34.304688 13.460938 -34.726562 13.796875 -35 C 14.140625 -35.269531 14.597656 -35.40625 15.171875 -35.40625 L 20.34375 -35.40625 C 20.945312 -35.40625 21.398438 -35.269531 21.703125 -35 C 22.015625 -34.726562 22.296875 -34.304688 22.546875 -33.734375 L 34.4375 -1.5 C 34.582031 -1.175781 34.617188 -0.84375 34.546875 -0.5 C 34.472656 -0.164062 34.132812 0 33.53125 0 Z M 23.78125 -7.53125 L 17.765625 -25.296875 L 11.625 -7.53125 Z M 23.78125 -7.53125 "/></g></g><g style="fill:#0097b2;fill-opacity:1;"><g transform="translate(303.860241, 359.530116)"><path style="stroke:none" d="M 29.21875 -18.34375 C 29.320312 -18.3125 29.632812 -18.140625 30.15625 -17.828125 C 30.675781 -17.523438 31.238281 -17.066406 31.84375 -16.453125 C 32.457031 -15.847656 33 -15.039062 33.46875 -14.03125 C 33.9375 -13.03125 34.171875 -11.796875 34.171875 -10.328125 C 34.171875 -8.066406 33.625 -6.164062 32.53125 -4.625 C 31.4375 -3.082031 29.925781 -1.925781 28 -1.15625 C 26.082031 -0.382812 23.867188 0 21.359375 0 L 5.546875 0 C 4.929688 0 4.515625 -0.140625 4.296875 -0.421875 C 4.085938 -0.710938 3.984375 -1.09375 3.984375 -1.5625 L 3.984375 -33.90625 C 3.984375 -34.40625 4.085938 -34.789062 4.296875 -35.0625 C 4.515625 -35.332031 4.929688 -35.46875 5.546875 -35.46875 L 20.609375 -35.46875 C 23.546875 -35.46875 25.929688 -35.007812 27.765625 -34.09375 C 29.597656 -33.175781 30.953125 -31.972656 31.828125 -30.484375 C 32.710938 -28.992188 33.15625 -27.40625 33.15625 -25.71875 C 33.15625 -23.925781 32.859375 -22.5 32.265625 -21.4375 C 31.671875 -20.382812 31.054688 -19.625 30.421875 -19.15625 C 29.796875 -18.6875 29.394531 -18.414062 29.21875 -18.34375 Z M 21.46875 -7.640625 C 22.800781 -7.640625 23.820312 -7.914062 24.53125 -8.46875 C 25.25 -9.03125 25.609375 -9.921875 25.609375 -11.140625 C 25.609375 -12.390625 25.1875 -13.25 24.34375 -13.71875 C 23.5 -14.1875 22.429688 -14.421875 21.140625 -14.421875 L 19.90625 -14.421875 C 19.300781 -14.421875 18.890625 -14.5625 18.671875 -14.84375 C 18.453125 -15.132812 18.34375 -15.515625 18.34375 -15.984375 L 18.34375 -20.078125 C 18.34375 -20.578125 18.453125 -20.957031 18.671875 -21.21875 C 18.890625 -21.488281 19.300781 -21.625 19.90625 -21.625 L 20.609375 -21.625 C 22.191406 -21.625 23.332031 -21.898438 24.03125 -22.453125 C 24.726562 -23.015625 25.078125 -23.816406 25.078125 -24.859375 C 25.078125 -26.078125 24.679688 -26.882812 23.890625 -27.28125 C 23.097656 -27.675781 22.003906 -27.875 20.609375 -27.875 L 12.4375 -27.875 L 12.4375 -7.640625 Z M 21.46875 -7.640625 "/></g></g><g style="fill:#0097b2;fill-opacity:1;"><g transform="translate(107.375415, 356.535841)"><path style="stroke:none" d="M 27.546875 0 L 17.890625 0 L 13.734375 -6.90625 L 13.5625 -6.90625 L 9.359375 0 L 0.171875 0 L 8.609375 -11.65625 L 1 -21.96875 L 10.734375 -21.96875 L 14.234375 -16.140625 L 14.390625 -16.140625 L 17.890625 -21.96875 L 27.046875 -21.96875 L 19.3125 -11.4375 Z M 27.546875 0 "/></g></g><g clip-rule="nonzero" clip-path="url(#cdc7756718)"><g clip-rule="nonzero" clip-path="url(#53fbe36f05)"><g transform="matrix(1,0,0,1,60,49)"><g clip-path="url(#dafa0f840c)"><g clip-rule="nonzero" clip-path="url(#f9ac2d6c4b)"><g clip-rule="nonzero" clip-path="url(#b3b38d8997)"><path style=" stroke:none;fill-rule:nonzero;fill:#0097b2;fill-opacity:1;" d="M 0.988281 0.484375 L 242.257812 0.484375 L 242.257812 241.757812 L 0.988281 241.757812 Z M 0.988281 0.484375 "/></g></g></g></g></g></g><g clip-rule="nonzero" clip-path="url(#c5a15395b0)"><g clip-rule="nonzero" clip-path="url(#5f2eb01048)"><path style="fill:none;stroke-width:8;stroke-linecap:butt;stroke-linejoin:miter;stroke:#bff8fa;stroke-opacity:1;stroke-miterlimit:4;" d="M 161.150838 -0.00257377 C 72.147648 -0.00257377 -0.000458538 72.150751 -0.000458538 161.148723 C -0.000458538 250.146695 72.147648 322.294801 161.150838 322.294801 C 250.14881 322.294801 322.296917 250.146695 322.296917 161.148723 C 322.296917 72.150751 250.14881 -0.00257377 161.150838 -0.00257377 Z M 161.150838 -0.00257377 " transform="matrix(0.748569,0,0,0.748569,60.988624,49.486302)"/></g></g><g transform="matrix(1,0,0,1,99,55)"><g clip-path="url(#000fac4cf1)"><g style="fill:#bff8fa;fill-opacity:1;"><g transform="translate(1.05994, 184.705444)"><path style="stroke:none" d="M 5.453125 0 Z M 54.515625 -144.25 L 109.234375 -144.25 L 158.515625 -14.671875 L 158.515625 0 L 5.453125 0 L 5.453125 -14.671875 Z M 104.84375 -32.078125 L 81.5625 -109.875 L 80.71875 -109.875 L 56.1875 -32.078125 Z M 104.84375 -32.078125 "/></g></g></g></g></g></svg>